<?xml version="1.0" standalone="no"?><!-- Generator: Gravit.io --><svg xmlns="http://www.w3.org/2000/svg" xmlns:xlink="http://www.w3.org/1999/xlink" style="isolation:isolate" viewBox="0 0 100 100" width="100" height="100"><defs><clipPath id="_clipPath_jGBPRs1hNG7OXccCJM1drqKZ2sbNh1Cx"><rect width="100" height="100"/></clipPath></defs><g clip-path="url(#_clipPath_jGBPRs1hNG7OXccCJM1drqKZ2sbNh1Cx)"><g/><g><g><g><g><path d=" M 86.985 13.775 C 118.494 12.914 34.488 75.888 19.985 74.06 C 14.183 73.328 10.258 74.88 8.212 78.714 Q 6.167 82.547 6.624 89.421 Q 11.343 84.349 19.681 86.534 C 28.02 88.719 68.335 97.247 78.9 51.205 C 83.105 32.879 82.055 23.928 79.732 19.186 Q 78.826 17.336 73.93 13.775" fill="none" vector-effect="non-scaling-stroke" stroke-width="3" stroke="rgb(0,0,0)" stroke-linejoin="miter" stroke-linecap="square" stroke-miterlimit="3"/><path d=" M 67.697 9.608 C 69.381 7.368 72.566 6.916 74.806 8.6 C 77.045 10.283 77.497 13.469 75.813 15.708 C 74.13 17.948 70.945 18.4 68.705 16.716 C 66.465 15.033 66.013 11.847 67.697 9.608 Z " fill="rgb(0,0,0)"/><path d=" M 82.201 10.716 C 83.884 8.476 87.07 8.024 89.309 9.708 C 91.549 11.391 92.001 14.577 90.317 16.816 C 88.634 19.056 85.448 19.508 83.209 17.824 C 80.969 16.141 80.517 12.955 82.201 10.716 Z " fill="rgb(0,0,0)"/><path d=" M 20.493 37.789 C 30.113 24.991 47.536 21.824 59.374 30.723 C 71.213 39.622 73.014 57.238 63.394 70.036 C 53.774 82.835 36.352 86.001 24.513 77.102 C 12.674 68.204 10.873 50.588 20.493 37.789 Z " fill="rgb(0,0,0)"/><path d=" M 33.068 74.68 C 23.587 68.809 21.147 55.551 27.624 45.093 C 34.1 34.635 47.056 30.911 56.538 36.783 C 66.019 42.655 68.459 55.913 61.982 66.371 C 55.506 76.829 42.55 80.552 33.068 74.68 Z " fill="rgb(53,53,53)"/><path d=" M 36.566 71.82 C 30.36 67.324 29.908 57.345 35.556 49.548 C 41.204 41.751 50.827 39.071 57.033 43.567 C 63.239 48.062 63.691 58.042 58.043 65.839 C 52.395 73.635 42.771 76.315 36.566 71.82 Z " fill="rgb(77,77,77)"/><path d=" M 41.061 67.828 C 37.818 64.741 38.473 58.78 42.524 54.525 C 46.574 50.269 52.495 49.321 55.738 52.407 C 58.981 55.494 58.326 61.455 54.276 65.711 C 50.226 69.966 44.305 70.915 41.061 67.828 Z " fill="rgb(102,102,102)"/></g></g></g></g></g></svg>